 <svg version="1.0" xmlns="http://www.w3.org/2000/svg"  width="300.000000pt" height="124.000000pt" viewBox="0 0 300.000000 124.000000"  preserveAspectRatio="xMidYMid meet">  <g transform="translate(0.000000,124.000000) scale(0.100000,-0.100000)" fill="#38761d" stroke="none"> <path d="M342 937 c-47 -50 -15 -127 53 -127 43 0 75 32 75 75 0 66 -83 100 -128 52z m96 -23 c10 -5 10 -53 -1 -62 -40 -32 -81 -18 -93 31 -5 24 -2 29 27 41 26 11 38 12 49 3 8 -6 16 -12 18 -13z"/> <path d="M493 944 c-2 -6 -3 -38 -1 -70 l3 -59 69 0 69 0 0 69 0 68 -68 2 c-42 0 -69 -3 -72 -10z m111 -32 c2 -9 4 -28 3 -42 -2 -22 -7 -25 -44 -28 l-43 -3 0 44 0 45 40 0 c28 1 40 -4 44 -16z"/> <path d="M663 944 c-2 -6 -3 -38 -1 -70 l3 -59 69 0 69 0 1 69 1 68 -69 2 c-42 0 -70 -3 -73 -10z m110 -31 c2 -10 5 -30 6 -45 1 -27 -2 -28 -44 -28 l-45 0 0 38 c0 47 4 52 46 52 23 0 34 -5 37 -17z"/> <path d="M323 774 c-2 -6 -3 -38 -1 -70 l3 -59 68 0 c37 0 67 3 67 8 0 4 0 35 0 70 l0 62 -66 0 c-40 0 -68 -5 -71 -11z m117 -59 l0 -45 -45 0 -45 0 0 45 0 45 45 0 45 0 0 -45z"/> <path d="M493 774 c-2 -6 -3 -38 -1 -70 l3 -59 69 0 69 0 1 69 1 69 -69 1 c-42 1 -70 -3 -73 -10z m113 -59 l1 -45 -44 0 -43 0 0 45 0 45 43 0 42 0 1 -45z"/> <path d="M323 604 c-2 -6 -3 -38 -1 -70 l3 -59 68 0 c37 0 67 3 67 8 0 4 0 34 0 66 l0 59 -66 4 c-43 2 -68 -1 -71 -8z m111 -31 c2 -10 4 -29 3 -43 -2 -22 -7 -25 -44 -28 -43 -3 -43 -3 -43 30 0 19 5 39 12 46 19 19 66 15 72 -5z"/> <path d="M493 604 c-2 -6 -3 -38 -1 -70 l3 -59 69 0 69 0 1 67 1 67 -69 3 c-44 2 -70 -1 -73 -8z m104 -26 c6 -7 9 -26 9 -43 -1 -28 -4 -30 -43 -33 l-43 -3 0 45 c0 46 0 46 34 46 18 0 38 -6 43 -12z"/> <path d="M663 604 c-2 -6 -3 -38 -1 -70 l3 -59 69 0 69 0 0 69 0 69 -68 1 c-41 1 -69 -3 -72 -10z m115 -60 l-2 -44 -42 0 -41 0 -1 44 -1 44 44 0 44 0 -1 -44z"/> <path d="M900 545 c0 -60 3 -75 15 -75 12 0 15 15 15 75 0 60 -3 75 -15 75 -12 0 -15 -15 -15 -75z"/> <path d="M970 544 c0 -62 3 -74 16 -74 14 0 16 8 11 55 -7 65 1 64 33 -4 17 -37 29 -51 44 -51 19 0 21 6 21 72 0 48 -4 73 -12 75 -10 4 -13 -11 -13 -54 l0 -58 -30 51 c-16 28 -38 54 -49 57 -20 5 -21 1 -21 -69z"/> <path d="M1139 601 c-22 -18 -22 -19 -6 -44 9 -14 26 -28 37 -32 11 -3 20 -10 20 -15 0 -14 -23 -18 -48 -9 -19 8 -23 6 -20 -8 4 -20 29 -28 63 -19 45 11 42 57 -6 82 -39 19 -38 38 1 31 22 -5 30 -3 30 7 0 13 -20 26 -40 26 -4 0 -18 -8 -31 -19z"/> <path d="M1230 603 c0 -7 8 -13 18 -13 16 0 18 -7 14 -60 -4 -54 -3 -60 15 -60 17 0 19 6 15 60 -4 56 -3 60 17 60 11 0 21 6 21 13 0 8 -17 12 -50 12 -33 0 -50 -4 -50 -12z"/> <path d="M1357 613 c-4 -3 -7 -37 -7 -75 0 -54 3 -68 15 -68 12 0 15 15 15 75 0 69 -6 86 -23 68z"/> <path d="M1404 611 c-11 -11 -2 -21 19 -21 21 0 22 -3 19 -60 -3 -50 -1 -60 12 -60 13 0 16 12 16 60 0 53 2 60 20 60 11 0 20 6 20 13 0 8 -17 12 -51 12 -28 0 -53 -2 -55 -4z"/> <path d="M1537 614 c-13 -13 -7 -100 9 -122 18 -26 65 -30 88 -6 22 22 23 131 1 131 -12 0 -15 -13 -15 -58 0 -43 -4 -58 -16 -63 -30 -11 -45 14 -43 68 3 46 -7 66 -24 50z"/> <path d="M1670 603 c0 -7 9 -13 20 -13 18 0 20 -7 20 -60 0 -47 3 -60 15 -60 12 0 15 13 15 60 0 54 2 60 21 60 11 0 19 5 17 11 -5 16 -108 18 -108 2z"/> <path d="M1832 610 c-67 -27 -45 -140 28 -140 33 0 70 40 70 75 0 47 -53 82 -98 65z m58 -40 c13 -24 4 -66 -16 -74 -22 -8 -44 4 -50 29 -13 51 42 89 66 45z"/> <path d="M2010 543 c0 -58 3 -73 15 -73 10 0 15 10 15 30 0 25 4 30 25 30 14 0 25 5 25 10 0 6 -11 10 -25 10 -18 0 -25 5 -25 20 0 15 7 20 25 20 14 0 25 6 25 13 0 7 -15 12 -40 12 l-40 0 0 -72z"/> <path d="M2120 543 l0 -73 40 0 c29 0 40 4 40 15 0 9 -9 15 -25 15 -18 0 -25 5 -25 19 0 14 6 17 25 13 18 -3 25 0 25 12 0 10 -9 16 -25 16 -16 0 -25 6 -25 15 0 9 9 15 25 15 14 0 25 6 25 13 0 7 -15 12 -40 12 l-40 0 0 -72z"/> <path d="M2230 543 l0 -73 35 0 c42 0 85 37 85 72 0 42 -26 66 -75 70 l-45 3 0 -72z m82 21 c14 -31 1 -57 -31 -62 -19 -3 -21 1 -21 42 0 39 3 46 20 46 12 0 25 -10 32 -26z"/> <path d="M2375 610 c-1 -3 -2 -35 -3 -72 l-1 -68 45 0 c32 0 44 4 44 15 0 10 -10 15 -30 15 -20 0 -30 5 -30 15 0 9 9 15 25 15 16 0 25 6 25 15 0 9 -9 15 -25 15 -16 0 -25 6 -25 15 0 10 10 15 31 15 45 0 31 23 -15 24 -21 1 -39 -1 -41 -4z"/> <path d="M2490 543 c0 -58 3 -73 15 -73 10 0 15 10 15 30 0 17 4 30 9 30 5 0 14 -13 21 -30 10 -25 18 -30 47 -30 26 0 36 5 40 20 4 13 14 20 30 20 16 0 27 -7 30 -20 3 -11 13 -20 23 -20 16 0 15 6 -7 69 -34 95 -54 99 -83 17 -28 -78 -33 -83 -54 -51 -16 25 -16 28 -1 45 26 28 5 57 -45 62 l-40 4 0 -73z m65 27 c0 -8 -8 -16 -17 -18 -13 -2 -18 3 -18 18 0 15 5 20 18 18 9 -2 17 -10 17 -18z m118 -38 c-20 -5 -22 -1 -15 33 l5 30 13 -30 c10 -25 10 -31 -3 -33z"/> <path d="M2757 614 c-4 -4 -7 -38 -7 -76 l0 -68 45 0 c33 0 45 4 45 15 0 10 -10 15 -31 15 l-30 0 2 57 c3 52 -7 74 -24 57z"/> <path d="M322 373 l3 -68 68 0 c37 0 67 3 67 8 0 4 0 34 0 67 l0 60 -70 0 -71 0 3 -67z m112 31 c10 -26 7 -72 -5 -76 -6 -2 -26 -2 -45 0 -33 4 -34 5 -32 48 1 44 1 44 39 44 24 0 39 -5 43 -16z"/> <path d="M492 373 l3 -68 70 0 70 0 3 68 3 67 -76 0 -76 0 3 -67z m114 0 c1 -45 -4 -51 -51 -48 -32 2 -42 24 -31 70 5 19 12 23 43 22 37 -2 37 -3 39 -44z"/> <path d="M995 410 c-3 -5 -1 -10 4 -10 6 0 11 5 11 10 0 6 -2 10 -4 10 -3 0 -8 -4 -11 -10z"/> <path d="M1202 409 c-61 -23 -44 -113 21 -107 27 2 33 8 35 31 3 23 0 27 -20 26 -13 0 -17 -3 -10 -6 15 -6 16 -43 1 -43 -24 0 -49 22 -49 44 0 30 24 50 50 43 11 -3 22 -2 25 3 7 12 -28 18 -53 9z"/> <path d="M1573 400 c4 -17 2 -20 -13 -15 -18 6 -50 -17 -50 -36 0 -29 22 -49 50 -47 30 2 30 3 30 60 0 36 -4 58 -11 58 -6 0 -9 -9 -6 -20z m-5 -57 c-2 -17 -9 -28 -18 -28 -9 0 -16 11 -18 28 -3 22 1 27 18 27 17 0 21 -5 18 -27z"/> <path d="M1790 401 c0 -14 -5 -18 -20 -14 -14 4 -23 -2 -32 -22 -16 -36 0 -60 41 -62 l31 -1 0 59 c0 33 -4 59 -10 59 -5 0 -10 -9 -10 -19z m-2 -58 c-2 -17 -9 -28 -18 -28 -9 0 -16 11 -18 28 -3 22 1 27 18 27 17 0 21 -5 18 -27z"/> <path d="M1977 408 c-24 -13 -21 -33 10 -56 32 -23 23 -45 -14 -36 -18 5 -24 3 -19 -5 10 -15 51 -14 65 3 15 17 6 39 -21 51 -26 12 -24 30 2 29 11 0 20 3 20 7 0 12 -26 17 -43 7z"/> <path d="M2143 360 c0 -36 2 -50 4 -32 2 17 2 47 0 65 -2 17 -4 3 -4 -33z"/> <path d="M900 356 c0 -31 5 -56 10 -56 6 0 10 11 10 25 0 14 5 25 10 25 6 0 16 -11 22 -25 6 -14 15 -25 20 -25 10 0 11 14 1 24 -5 4 -8 24 -8 44 0 34 -2 37 -32 40 l-33 3 0 -55z m55 24 c0 -8 -8 -16 -17 -18 -13 -2 -18 3 -18 18 0 15 5 20 18 18 9 -2 17 -10 17 -18z"/> <path d="M999 388 c-5 -25 -3 -88 3 -88 4 0 8 20 8 45 0 25 -2 45 -5 45 -3 0 -5 -1 -6 -2z"/> <path d="M1042 378 c-15 -15 -15 -51 0 -66 18 -18 46 -14 58 7 14 27 13 37 -6 55 -19 19 -36 20 -52 4z m48 -32 c0 -32 -20 -44 -36 -22 -16 23 -7 46 17 46 13 0 19 -7 19 -24z"/> <path d="M1282 340 c1 -38 2 -40 5 -11 3 22 11 35 24 38 28 8 23 23 -6 21 -23 -2 -25 -6 -23 -48z"/> <path d="M1345 381 c-4 -7 4 -11 19 -11 14 0 26 -4 26 -10 0 -5 -11 -10 -24 -10 -25 0 -39 -19 -27 -38 4 -7 20 -11 35 -10 25 2 27 5 24 43 -2 32 -7 41 -25 43 -11 2 -24 -2 -28 -7z m45 -50 c0 -5 -7 -12 -16 -15 -22 -9 -24 -8 -24 9 0 8 9 15 20 15 11 0 20 -4 20 -9z"/> <path d="M1420 343 c0 -24 5 -43 10 -43 6 0 10 16 10 35 0 28 4 35 20 35 16 0 20 -7 20 -35 0 -19 5 -35 10 -35 13 0 13 50 0 70 -5 8 -23 15 -40 15 -29 1 -30 -1 -30 -42z"/> <path d="M1622 378 c-7 -7 -12 -25 -12 -40 0 -21 6 -29 26 -34 15 -4 30 -2 37 6 10 10 8 12 -5 7 -21 -7 -48 1 -48 14 0 5 14 9 30 9 18 0 30 5 30 13 0 16 -20 37 -35 37 -6 0 -16 -5 -23 -12z m38 -18 c0 -5 -9 -10 -20 -10 -11 0 -20 5 -20 10 0 6 9 10 20 10 11 0 20 -4 20 -10z"/> <path d="M1840 376 c-15 -19 -9 -56 11 -69 25 -16 49 -1 49 31 0 46 -35 68 -60 38z m48 -30 c2 -10 -1 -23 -7 -29 -15 -15 -46 16 -37 38 8 21 40 15 44 -9z"/> <path d="M2048 385 c-3 -6 -3 -26 1 -45 6 -31 11 -35 39 -37 31 -1 32 0 32 43 0 54 -18 59 -22 7 -4 -53 -31 -52 -38 2 -3 22 -8 35 -12 30z"/> </g> </svg> 